<svg xmlns="http://www.w3.org/2000/svg" version="1.1" xmlns:xlink="http://www.w3.org/1999/xlink" xmlns:svgjs="http://svgjs.dev/svgjs" width="1000" height="1000" viewBox="0 0 1000 1000"><rect width="1000" height="1000" fill="#000000"></rect><g transform="matrix(0.7,0,0,0.7,149.57577491557873,373.1907526852347)"><svg viewBox="0 0 396 144" data-background-color="#ffffff" preserveAspectRatio="xMidYMid meet" height="363" width="1000" xmlns="http://www.w3.org/2000/svg" xmlns:xlink="http://www.w3.org/1999/xlink"><g id="tight-bounds" transform="matrix(1,0,0,1,0.23999019061545823,-0.13643599635499015)"><svg viewBox="0 0 395.52 144.27287199270998" height="144.27287199270998" width="395.52"><g><svg viewBox="0 0 670.1016634096327 244.43135999999993" height="144.27287199270998" width="395.52"><g transform="matrix(1,0,0,1,274.58166340963265,29.1734158331236)"><svg viewBox="0 0 395.52 186.08452833375273" height="186.08452833375273" width="395.52"><g><svg viewBox="0 0 395.52 186.08452833375273" height="186.08452833375273" width="395.52"><g><svg viewBox="0 0 395.52 127.71439455782313" height="127.71439455782313" width="395.52"><g transform="matrix(1,0,0,1,0,0)"><svg width="395.52" viewBox="4.349999904632568 -34.95000076293945 110.23999786376953 35.60000228881836" height="127.71439455782313" data-palette-color="#152232"><path d="M16.25-34.95L16.25-34.95Q20.25-34.95 22.7-34.08 25.15-33.2 26.28-31.05 27.4-28.9 27.4-25L27.4-25Q27.4-22.2 26.75-20.33 26.1-18.45 24.73-17.43 23.35-16.4 21.05-16.1L21.05-16.1 21.05-15.85Q21.9-15.65 22.73-15.03 23.55-14.4 24.25-13.38 24.95-12.35 25.3-10.9L25.3-10.9 28.65 0 23.95 0 20.9-10.8Q20.25-12.75 19.15-13.58 18.05-14.4 16.3-14.4L16.3-14.4Q13.25-14.4 11-14.43 8.75-14.45 7.25-14.5 5.75-14.55 4.85-14.55L4.85-14.55 5-18.2 16.15-18.2Q18.7-18.25 20.18-18.8 21.65-19.35 22.3-20.78 22.95-22.2 22.95-24.75L22.95-24.75Q22.95-27.3 22.3-28.68 21.65-30.05 20.18-30.6 18.7-31.15 16.15-31.15L16.15-31.15Q12.05-31.15 9.08-31.1 6.1-31.05 5.05-31.05L5.05-31.05 4.35-34.5Q6.25-34.7 7.9-34.8 9.55-34.9 11.53-34.93 13.5-34.95 16.25-34.95ZM4.35-34.5L8.7-34.5 8.7 0 4.35 0 4.35-34.5ZM44.55-24.95L44.55-24.95Q50.05-24.95 52.52-22.95 55-20.95 55-17L55-17Q55.05-13.75 53.65-11.93 52.25-10.1 49.2-10.1L49.2-10.1 35-10.1 35-13.4 48.1-13.4Q49.75-13.4 50.25-14.53 50.75-15.65 50.75-17L50.75-17Q50.7-19.35 49.35-20.35 48-21.35 44.75-21.35L44.75-21.35Q42.1-21.35 40.57-20.58 39.05-19.8 38.42-17.88 37.8-15.95 37.8-12.5L37.8-12.5Q37.8-8.6 38.57-6.55 39.35-4.5 41.05-3.75 42.75-3 45.55-3L45.55-3Q47.5-3 49.82-3.18 52.15-3.35 54-3.6L54-3.6 54.45-0.75Q53.3-0.3 51.62 0 49.95 0.3 48.17 0.45 46.4 0.6 45 0.6L45 0.6Q40.8 0.6 38.25-0.68 35.7-1.95 34.52-4.78 33.35-7.6 33.35-12.25L33.35-12.25Q33.35-17.05 34.52-19.83 35.7-22.6 38.17-23.78 40.65-24.95 44.55-24.95ZM63.25-31.55L67.5-31.55 67.5-6.7Q67.5-4.95 68.25-4.2 69-3.45 70.8-3.45L70.8-3.45 74.5-3.45 75-0.2Q74.2 0 73.15 0.15 72.09 0.3 71.09 0.38 70.09 0.45 69.5 0.45L69.5 0.45Q66.45 0.45 64.84-1.25 63.25-2.95 63.25-6.15L63.25-6.15 63.25-31.55ZM63.65-24.35L75.25-24.35 75.25-21 58.85-21 58.85-24.1 63.65-24.35ZM80.64-24.35L84.84-24.35 84.84 0 80.64 0 80.64-24.35ZM81.74-34.7L83.74-34.7Q85.04-34.7 85.04-33.4L85.04-33.4 85.04-30.55Q85.04-29.25 83.74-29.25L83.74-29.25 81.74-29.25Q80.44-29.25 80.44-30.55L80.44-30.55 80.44-33.4Q80.44-34.7 81.74-34.7L81.74-34.7ZM103.14-24.95L103.14-24.95Q107.34-24.95 109.87-23.7 112.39-22.45 113.49-19.63 114.59-16.8 114.59-12.15L114.59-12.15Q114.59-7.5 113.49-4.67 112.39-1.85 109.87-0.6 107.34 0.65 103.14 0.65L103.14 0.65Q98.99 0.65 96.47-0.6 93.94-1.85 92.82-4.67 91.69-7.5 91.69-12.15L91.69-12.15Q91.69-16.8 92.82-19.63 93.94-22.45 96.47-23.7 98.99-24.95 103.14-24.95ZM103.14-21.35L103.14-21.35Q100.49-21.35 98.97-20.53 97.44-19.7 96.79-17.7 96.14-15.7 96.14-12.15L96.14-12.15Q96.14-8.6 96.79-6.6 97.44-4.6 98.97-3.78 100.49-2.95 103.14-2.95L103.14-2.95Q105.79-2.95 107.34-3.78 108.89-4.6 109.54-6.6 110.19-8.6 110.19-12.15L110.19-12.15Q110.19-15.7 109.54-17.7 108.89-19.7 107.34-20.53 105.79-21.35 103.14-21.35Z" opacity="1" transform="matrix(1,0,0,1,0,0)" fill="#ffffff" class="undefined-text-0" data-fill-palette-color="primary" id="text-0"></path></svg></g></svg></g><g transform="matrix(1,0,0,1,0,157.86469796745578)"><svg viewBox="0 0 395.52 28.21983036629695" height="28.21983036629695" width="395.52"><g transform="matrix(1,0,0,1,0,0)"><svg width="395.52" viewBox="7.079999923706055 -36.88999938964844 523.8299560546875 37.380001068115234" height="28.21983036629695" data-palette-color="#5ebc67"><path d="M17.92-31.52L11.23-31.52 11.23-19.87Q11.69-19.9 12.84-19.91 13.99-19.92 14.62-19.93 15.26-19.95 16.41-20.03 17.55-20.12 18.25-20.23 18.95-20.34 19.93-20.57 20.92-20.8 21.55-21.11 22.17-21.41 22.86-21.89 23.56-22.36 23.95-22.95 24.34-23.54 24.6-24.35 24.85-25.17 24.85-26.15L24.85-26.15Q24.85-26.88 24.71-27.54 24.56-28.2 24.1-28.96 23.63-29.71 22.9-30.25 22.17-30.79 20.89-31.15 19.6-31.52 17.92-31.52L17.92-31.52ZM11.23-16.65L11.23-16.65 11.23-3.66 17.7-3.66Q18.58-3.66 19.18-3.67 19.78-3.69 20.9-3.82 22.02-3.96 22.81-4.19 23.61-4.42 24.58-4.9 25.56-5.37 26.16-6.03 26.76-6.69 27.17-7.73 27.59-8.76 27.59-10.08L27.59-10.08Q27.59-13.33 25.07-15.16 22.56-16.99 18.31-16.99L18.31-16.99Q17.85-16.99 11.23-16.65ZM7.08 0L7.08-34.69 19.31-34.69Q21.09-34.69 22.57-34.31 24.05-33.94 25.01-33.35 25.98-32.76 26.72-31.96 27.47-31.15 27.86-30.4 28.25-29.64 28.49-28.78 28.74-27.93 28.8-27.38 28.86-26.83 28.86-26.34L28.86-26.34Q28.86-24.22 27.42-22.11 25.98-20 24.37-19.38L24.37-19.38Q27.59-18.8 29.65-16.27 31.71-13.75 31.71-10.52L31.71-10.52Q31.71-9.77 31.58-8.94 31.45-8.11 31.05-7.06 30.66-6.01 30.05-5.05 29.44-4.1 28.39-3.16 27.34-2.22 25.99-1.54 24.63-0.85 22.67-0.43 20.7 0 18.36 0L18.36 0 7.08 0ZM49.53-24.58L49.53-24.58Q51.29-24.58 52.7-24.16 54.1-23.73 55.03-23.07 55.95-22.41 56.63-21.35 57.3-20.29 57.65-19.3 58.01-18.31 58.2-16.92 58.4-15.53 58.44-14.5 58.49-13.48 58.49-12.08L58.49-12.08 58.49-10.18 41.92-10.18Q41.92-8.86 42.51-7.56 43.11-6.25 44.2-5.16 45.29-4.08 47.06-3.39 48.83-2.71 50.97-2.71L50.97-2.71Q53.51-2.71 56.47-3.59L56.47-3.59 57.18-0.85Q53.24 0.49 49.46 0.49L49.46 0.49Q46.8 0.49 44.74-0.22 42.67-0.93 41.42-2.06 40.16-3.2 39.35-4.79 38.55-6.37 38.24-7.95 37.94-9.52 37.94-11.28L37.94-11.28Q37.94-13.99 38.6-16.24 39.26-18.48 40.38-20.01 41.5-21.53 43-22.58 44.5-23.63 46.15-24.11 47.8-24.58 49.53-24.58ZM48.68-21.12L48.68-21.12Q46.53-21.12 44.98-19.93 43.43-18.75 42.72-16.99 42.01-15.23 42.01-13.21L42.01-13.21 54.61-13.21Q54.61-21.12 48.68-21.12ZM76.07-24.58L76.07-24.58Q76.58-24.58 77.03-24.57 77.49-24.56 77.91-24.51 78.34-24.46 78.64-24.44 78.95-24.41 79.35-24.34 79.76-24.27 79.94-24.23 80.12-24.19 80.55-24.08 80.98-23.97 81.07-23.95 81.17-23.93 81.65-23.78 82.12-23.63 82.2-23.61L82.2-23.61 81.17-20.56Q77.9-21.46 75.41-21.46L75.41-21.46Q73.97-21.46 72.86-21.17 71.75-20.87 71.15-20.46 70.55-20.04 70.17-19.49 69.79-18.95 69.68-18.53 69.58-18.12 69.58-17.72L69.58-17.72Q69.58-16.72 70.61-15.94 71.65-15.16 73.2-14.67 74.75-14.18 76.56-13.51 78.36-12.84 79.91-12.1 81.46-11.35 82.5-10.01 83.54-8.67 83.54-6.91L83.54-6.91Q83.54-5.91 83.28-4.97 83.03-4.03 82.31-3 81.59-1.98 80.45-1.23 79.32-0.49 77.41 0 75.51 0.49 73.04 0.49L73.04 0.49Q69.31 0.49 64.84-1.34L64.84-1.34 65.96-4.37Q68.48-3.44 70.08-3.05 71.67-2.66 73.21-2.66L73.21-2.66Q79.17-2.66 79.17-6.45L79.17-6.45Q79.17-7.28 78.58-7.91 78-8.54 77.02-8.95 76.04-9.35 74.81-9.78 73.58-10.21 72.3-10.57 71.02-10.94 69.78-11.54 68.55-12.13 67.57-12.85 66.6-13.57 66.01-14.72 65.42-15.87 65.42-17.31L65.42-17.31Q65.42-18.19 65.71-19.1 65.99-20.02 66.76-21.03 67.52-22.05 68.67-22.81 69.82-23.58 71.74-24.08 73.65-24.58 76.07-24.58ZM103.12-3.15L103.68-0.42Q100.14 0.49 98.16 0.49 96.18 0.49 94.82-0.15 93.45-0.78 92.74-1.95 92.03-3.13 91.73-4.48 91.42-5.83 91.42-7.59L91.42-7.59 91.42-20.97 88.18-20.97 88.18-24.12 91.42-24.12 91.42-31.03 95.43-31.03 95.43-24.12 102.78-24.12 102.78-20.97 95.43-20.97 95.43-7.64Q95.43-2.64 99.38-2.64L99.38-2.64Q100.09-2.64 103.12-3.15L103.12-3.15ZM149.04-25.17L149.04-25.17Q149.04-23.44 148.62-21.88 148.21-20.31 147.33-18.9 146.45-17.48 144.9-16.44 143.35-15.41 141.27-14.92L141.27-14.92 151.06 0 146.42 0 137.02-14.45 130.31-14.45 130.31 0 126.13 0 126.13-34.69 138.88-34.69Q139.76-34.69 140.47-34.64 141.17-34.59 142.28-34.39 143.4-34.18 144.25-33.83 145.1-33.47 146.04-32.75 146.98-32.03 147.61-31.05 148.23-30.08 148.63-28.56 149.04-27.05 149.04-25.17ZM130.31-31.05L130.31-18.12 136.29-18.12Q137.54-18.12 138.49-18.2 139.44-18.29 140.72-18.66 142-19.04 142.85-19.71 143.69-20.39 144.29-21.67 144.88-22.95 144.88-24.71L144.88-24.71Q144.88-25.95 144.57-26.95 144.25-27.95 143.76-28.6 143.27-29.25 142.57-29.72 141.86-30.2 141.2-30.44 140.54-30.69 139.73-30.83 138.93-30.98 138.4-31.02 137.88-31.05 137.29-31.05L137.29-31.05 130.31-31.05ZM168.93-24.58L168.93-24.58Q170.69-24.58 172.09-24.16 173.5-23.73 174.42-23.07 175.35-22.41 176.02-21.35 176.69-20.29 177.05-19.3 177.4-18.31 177.6-16.92 177.79-15.53 177.84-14.5 177.89-13.48 177.89-12.08L177.89-12.08 177.89-10.18 161.31-10.18Q161.31-8.86 161.91-7.56 162.51-6.25 163.6-5.16 164.68-4.08 166.45-3.39 168.22-2.71 170.37-2.71L170.37-2.71Q172.91-2.71 175.86-3.59L175.86-3.59 176.57-0.85Q172.64 0.49 168.86 0.49L168.86 0.49Q166.2 0.49 164.13-0.22 162.07-0.93 160.81-2.06 159.56-3.2 158.75-4.79 157.94-6.37 157.64-7.95 157.33-9.52 157.33-11.28L157.33-11.28Q157.33-13.99 157.99-16.24 158.65-18.48 159.78-20.01 160.9-21.53 162.4-22.58 163.9-23.63 165.55-24.11 167.2-24.58 168.93-24.58ZM168.08-21.12L168.08-21.12Q165.93-21.12 164.38-19.93 162.83-18.75 162.12-16.99 161.41-15.23 161.41-13.21L161.41-13.21 174.01-13.21Q174.01-21.12 168.08-21.12ZM197.71-3.15L198.27-0.42Q194.73 0.49 192.76 0.49 190.78 0.49 189.41-0.15 188.04-0.78 187.34-1.95 186.63-3.13 186.32-4.48 186.02-5.83 186.02-7.59L186.02-7.59 186.02-20.97 182.77-20.97 182.77-24.12 186.02-24.12 186.02-31.03 190.02-31.03 190.02-24.12 197.37-24.12 197.37-20.97 190.02-20.97 190.02-7.64Q190.02-2.64 193.98-2.64L193.98-2.64Q194.68-2.64 197.71-3.15L197.71-3.15ZM212.36-24.58L212.36-24.58Q215.04-24.58 216.91-23.96 218.78-23.34 219.79-22.14 220.81-20.95 221.24-19.48 221.68-18.02 221.68-16.11L221.68-16.11 221.68 0 218.85 0 217.92-2.2Q214.97 0.49 211.14 0.49L211.14 0.49Q207.72 0.49 205.35-1.57 202.98-3.64 202.98-6.4L202.98-6.4Q202.98-7.86 203.52-9.03 204.06-10.21 205.07-10.99 206.08-11.77 207.38-12.32 208.67-12.87 210.39-13.16 212.11-13.45 213.85-13.57 215.58-13.7 217.66-13.7L217.66-13.7 217.66-15.6Q217.66-16.43 217.59-17.04 217.53-17.65 217.19-18.51 216.85-19.36 216.26-19.91 215.68-20.46 214.51-20.86 213.33-21.26 211.72-21.26L211.72-21.26Q209.23-21.26 205.28-20.17L205.28-20.17 204.52-23.1Q208.52-24.58 212.36-24.58ZM217.66-5.13L217.66-10.67 216.17-10.67Q214.77-10.67 213.75-10.62 212.72-10.57 211.34-10.34 209.97-10.11 209.09-9.69 208.21-9.28 207.58-8.48 206.96-7.69 206.96-6.59L206.96-6.59Q206.96-5.05 208.51-3.86 210.06-2.66 212.21-2.66L212.21-2.66Q215.36-2.66 217.66-5.13L217.66-5.13ZM230.1-30.08L230.1-34.69 234.84-34.69 234.84-30.08 230.1-30.08ZM230.47 0L230.47-24.12 234.47-24.12 234.47 0 230.47 0ZM243.75 0L243.75-36.89 247.75-36.89 247.75 0 243.75 0ZM293.72 0L273.38 0 273.38-34.69 293.72-34.69 293.72-31.03 277.53-31.03 277.53-19.7 292.38-19.7 292.38-16.04 277.53-16.04 277.53-3.66 293.72-3.66 293.72 0ZM300.8-11.5L300.8-11.5Q300.8-14.36 301.48-16.64 302.16-18.92 303.3-20.37 304.44-21.83 305.97-22.79 307.51-23.75 309.12-24.16 310.73-24.56 312.49-24.56L312.49-24.56Q315.96-24.56 319.25-23.12L319.25-23.12 318.28-20.19Q315.57-21.12 312.98-21.12L312.98-21.12Q311.71-21.12 310.59-20.89 309.46-20.65 308.35-20.04 307.24-19.43 306.45-18.47 305.66-17.5 305.17-15.94 304.68-14.38 304.68-12.35L304.68-12.35Q304.68-10.13 305.19-8.44 305.7-6.74 306.53-5.69 307.36-4.64 308.52-3.98 309.68-3.32 310.87-3.06 312.05-2.81 313.42-2.81L313.42-2.81Q315.71-2.81 318.01-3.61L318.01-3.61 318.99-0.85Q315.52 0.49 312.03 0.49L312.03 0.49Q310.42 0.49 308.94 0.17 307.46-0.15 305.94-0.99 304.41-1.83 303.3-3.13 302.19-4.42 301.49-6.58 300.8-8.74 300.8-11.5ZM336.98-24.58L336.98-24.58Q341.98-24.58 345.22-21.39 348.45-18.19 348.45-12.55L348.45-12.55Q348.45-6.57 345.14-3.04 341.84 0.49 336.59 0.49L336.59 0.49Q331.58 0.49 328.41-2.82 325.23-6.13 325.23-11.79L325.23-11.79Q325.23-17.63 328.47-21.11 331.7-24.58 336.98-24.58ZM336.63-21.17L336.63-21.17Q333.63-21.17 331.39-18.85 329.14-16.53 329.14-12.48L329.14-12.48Q329.14-8.45 331.34-5.69 333.53-2.93 337.03-2.93L337.03-2.93Q340.25-2.93 342.4-5.37 344.55-7.81 344.55-11.74L344.55-11.74Q344.55-13.99 343.85-15.82 343.15-17.65 342.02-18.8 340.88-19.95 339.49-20.56 338.1-21.17 336.63-21.17ZM365.66-20.9L365.66-20.9Q363.56-20.9 360.02-19.04L360.02-19.04 360.02 0 356.02 0 356.02-24.12 358.82-24.12 359.68-22.12Q364.05-24.58 367.25-24.58L367.25-24.58Q370.93-24.58 373.03-21.9L373.03-21.9Q377.82-24.56 381.6-24.56L381.6-24.56Q383.43-24.56 384.83-24.06 386.22-23.56 387.08-22.69 387.95-21.83 388.5-20.52 389.05-19.21 389.26-17.76 389.46-16.31 389.46-14.48L389.46-14.48 389.46 0 385.46 0 385.46-14.75Q385.46-15.19 385.44-15.56 385.41-15.94 385.31-16.61 385.22-17.29 385.02-17.81 384.83-18.33 384.45-18.95 384.07-19.56 383.53-19.96 382.99-20.36 382.16-20.63 381.33-20.9 380.31-20.9L380.31-20.9Q378.06-20.9 374.38-18.99L374.38-18.99Q374.72-17.55 374.72-14.31L374.72-14.31 374.72 0 370.71 0 370.71-14.84Q370.71-15.48 370.67-16.05 370.62-16.63 370.32-17.58 370.03-18.53 369.54-19.2 369.05-19.87 368.04-20.39 367.03-20.9 365.66-20.9ZM407.99-20.9L407.99-20.9Q405.89-20.9 402.35-19.04L402.35-19.04 402.35 0 398.35 0 398.35-24.12 401.16-24.12 402.01-22.12Q406.38-24.58 409.58-24.58L409.58-24.58Q413.27-24.58 415.37-21.9L415.37-21.9Q420.15-24.56 423.93-24.56L423.93-24.56Q425.77-24.56 427.16-24.06 428.55-23.56 429.42-22.69 430.28-21.83 430.83-20.52 431.38-19.21 431.59-17.76 431.8-16.31 431.8-14.48L431.8-14.48 431.8 0 427.79 0 427.79-14.75Q427.79-15.19 427.77-15.56 427.74-15.94 427.65-16.61 427.55-17.29 427.35-17.81 427.16-18.33 426.78-18.95 426.4-19.56 425.86-19.96 425.33-20.36 424.5-20.63 423.67-20.9 422.64-20.9L422.64-20.9Q420.39-20.9 416.71-18.99L416.71-18.99Q417.05-17.55 417.05-14.31L417.05-14.31 417.05 0 413.05 0 413.05-14.84Q413.05-15.48 413-16.05 412.95-16.63 412.66-17.58 412.36-18.53 411.87-19.2 411.39-19.87 410.37-20.39 409.36-20.9 407.99-20.9ZM451.06-24.58L451.06-24.58Q452.81-24.58 454.22-24.16 455.62-23.73 456.55-23.07 457.48-22.41 458.15-21.35 458.82-20.29 459.17-19.3 459.53-18.31 459.72-16.92 459.92-15.53 459.97-14.5 460.02-13.48 460.02-12.08L460.02-12.08 460.02-10.18 443.44-10.18Q443.44-8.86 444.04-7.56 444.64-6.25 445.72-5.16 446.81-4.08 448.58-3.39 450.35-2.71 452.5-2.71L452.5-2.71Q455.04-2.71 457.99-3.59L457.99-3.59 458.7-0.85Q454.77 0.49 450.98 0.49L450.98 0.49Q448.32 0.49 446.26-0.22 444.2-0.93 442.94-2.06 441.68-3.2 440.88-4.79 440.07-6.37 439.76-7.95 439.46-9.52 439.46-11.28L439.46-11.28Q439.46-13.99 440.12-16.24 440.78-18.48 441.9-20.01 443.02-21.53 444.53-22.58 446.03-23.63 447.67-24.11 449.32-24.58 451.06-24.58ZM450.2-21.12L450.2-21.12Q448.05-21.12 446.5-19.93 444.95-18.75 444.24-16.99 443.54-15.23 443.54-13.21L443.54-13.21 456.13-13.21Q456.13-21.12 450.2-21.12ZM470.39-24.12L471.15-22.31Q474.2-24.58 477.88-24.58L477.88-24.58Q480.42-24.58 482.5-23.63L482.5-23.63 481.28-20.43Q479.37-21.17 477.32-21.17L477.32-21.17Q474.27-21.17 471.59-19.48L471.59-19.48 471.59 0 467.58 0 467.58-24.12 470.39-24.12ZM485.91-11.5L485.91-11.5Q485.91-14.36 486.6-16.64 487.28-18.92 488.42-20.37 489.55-21.83 491.09-22.79 492.63-23.75 494.24-24.16 495.85-24.56 497.61-24.56L497.61-24.56Q501.08-24.56 504.37-23.12L504.37-23.12 503.39-20.19Q500.68-21.12 498.1-21.12L498.1-21.12Q496.83-21.12 495.7-20.89 494.58-20.65 493.47-20.04 492.36-19.43 491.57-18.47 490.77-17.5 490.28-15.94 489.8-14.38 489.8-12.35L489.8-12.35Q489.8-10.13 490.31-8.44 490.82-6.74 491.65-5.69 492.48-4.64 493.64-3.98 494.8-3.32 495.99-3.06 497.17-2.81 498.54-2.81L498.54-2.81Q500.83-2.81 503.13-3.61L503.13-3.61 504.1-0.85Q500.64 0.49 497.14 0.49L497.14 0.49Q495.53 0.49 494.06 0.17 492.58-0.15 491.05-0.99 489.53-1.83 488.42-3.13 487.31-4.42 486.61-6.58 485.91-8.74 485.91-11.5ZM521.95-24.58L521.95-24.58Q523.7-24.58 525.11-24.16 526.51-23.73 527.44-23.07 528.37-22.41 529.04-21.35 529.71-20.29 530.06-19.3 530.42-18.31 530.61-16.92 530.81-15.53 530.86-14.5 530.91-13.48 530.91-12.08L530.91-12.08 530.91-10.18 514.33-10.18Q514.33-8.86 514.93-7.56 515.53-6.25 516.61-5.16 517.7-4.08 519.47-3.39 521.24-2.71 523.39-2.71L523.39-2.71Q525.93-2.71 528.88-3.59L528.88-3.59 529.59-0.85Q525.66 0.49 521.87 0.49L521.87 0.49Q519.21 0.49 517.15-0.22 515.09-0.93 513.83-2.06 512.57-3.2 511.77-4.79 510.96-6.37 510.66-7.95 510.35-9.52 510.35-11.28L510.35-11.28Q510.35-13.99 511.01-16.24 511.67-18.48 512.79-20.01 513.91-21.53 515.42-22.58 516.92-23.63 518.57-24.11 520.21-24.58 521.95-24.58ZM521.09-21.12L521.09-21.12Q518.94-21.12 517.39-19.93 515.84-18.75 515.14-16.99 514.43-15.23 514.43-13.21L514.43-13.21 527.03-13.21Q527.03-21.12 521.09-21.12Z" opacity="1" transform="matrix(1,0,0,1,0,0)" fill="#ffffff" class="undefined-text-1" data-fill-palette-color="secondary" id="text-1"></path></svg></g></svg></g></svg></g></svg></g><g><svg viewBox="0 0 244.43135999999998 244.43135999999993" height="244.43135999999993" width="244.43135999999998"><g><svg></svg></g><g id="icon-0"><svg viewBox="0 0 244.43135999999998 244.43135999999993" height="244.43135999999993" width="244.43135999999998"><g><path xmlns="http://www.w3.org/2000/svg" d="M73.329 244.431c-40.499 0-73.329-32.831-73.329-73.329v-97.773c0-40.499 32.831-73.329 73.329-73.329h97.773c40.499 0 73.329 32.831 73.329 73.329v97.773c0 40.499-32.831 73.329-73.329 73.329z" fill="#ffffff" fill-rule="nonzero" stroke="none" stroke-width="1" stroke-linecap="butt" stroke-linejoin="miter" stroke-miterlimit="10" stroke-dasharray="" stroke-dashoffset="0" font-family="none" font-weight="none" font-size="none" text-anchor="none" style="mix-blend-mode: normal" data-fill-palette-color="accent"></path></g><g transform="matrix(1,0,0,1,84.3288192,98.9321552771533)"><svg viewBox="0 0 75.77372159999999 46.56704944569333" height="46.56704944569333" width="75.77372159999999"><g><svg xmlns="http://www.w3.org/2000/svg" data-name="Layer 1" viewBox="2.430551767349243 20.79190444946289 95.1390609741211 58.46809768676758" x="0" y="0" height="46.56704944569333" width="75.77372159999999" class="icon-c-0" data-fill-palette-color="quaternary" id="c-0"><path d="M62.78 23l32 55.42 1.3-2.26h-64l1.3 2.26L65.37 23a1.5 1.5 0 0 0-2.59-1.51L30.79 77a1.51 1.51 0 0 0 1.3 2.26h64A1.51 1.51 0 0 0 97.37 77l-32-55.42A1.5 1.5 0 0 0 62.78 23Z" fill="#fbfbfb" data-fill-palette-color="quaternary"></path><path d="M34.63 23l32 55.42 1.3-2.26h-64l1.3 2.26L37.22 23a1.5 1.5 0 0 0-2.59-1.51L2.63 77a1.51 1.51 0 0 0 1.3 2.26h64A1.51 1.51 0 0 0 69.21 77l-32-55.42A1.5 1.5 0 0 0 34.63 23Z" fill="#fbfbfb" data-fill-palette-color="quaternary"></path></svg></g></svg></g></svg></g></svg></g></svg></g><defs></defs></svg><rect width="395.52" height="144.27287199270998" fill="none" stroke="none" visibility="hidden"></rect></g></svg></g></svg>